<svg width="387" height="137" viewBox="0 0 387 137" fill="none" xmlns="http://www.w3.org/2000/svg">
<path d="M79.097 84.2322C79.097 85.4609 78.8795 86.7792 78.4443 88.1871C78.0347 89.5949 77.3436 90.9004 76.3709 92.1035C75.4238 93.3066 74.1823 94.3177 72.6464 95.1369C71.1105 95.9304 69.2291 96.3271 67.0021 96.3271H29.1046C28.3878 96.3271 27.7223 96.1992 27.108 95.9432C26.4936 95.6872 25.9561 95.3416 25.4953 94.9065C25.0601 94.4457 24.7146 93.9082 24.4586 93.2938C24.2026 92.6795 24.0746 92.0139 24.0746 91.2972V46.2963C24.0746 45.6052 24.2026 44.9524 24.4586 44.3381C24.7146 43.7237 25.0601 43.1862 25.4953 42.7254C25.9561 42.2647 26.4936 41.9063 27.108 41.6503C27.7223 41.3943 28.3878 41.2663 29.1046 41.2663H62.5097C63.7384 41.2663 65.0567 41.4839 66.4645 41.9191C67.8724 42.3542 69.1779 43.0582 70.381 44.0309C71.6097 44.978 72.6208 46.2195 73.4143 47.7554C74.2335 49.2912 74.643 51.1727 74.643 53.3997V55.2811C74.643 57.0474 74.3486 58.9544 73.7599 61.0022C73.1711 63.0244 72.224 64.9443 70.9185 66.7617C72.0448 67.4529 73.0944 68.2848 74.0671 69.2575C75.0654 70.2302 75.9357 71.3565 76.678 72.6364C77.4204 73.9163 78.0091 75.3626 78.4443 76.9752C78.8795 78.5879 79.097 80.3669 79.097 82.3124V84.2322ZM69.1139 82.3124C69.1139 81.0069 68.9091 79.8422 68.4996 78.8183C68.09 77.7688 67.514 76.8728 66.7717 76.1305C66.0294 75.3882 65.1334 74.825 64.0839 74.4411C63.0344 74.0315 61.8569 73.8267 60.5514 73.8267H38.051V63.7668H56.059C57.3645 63.7668 58.542 63.5748 59.5915 63.1908C60.641 62.7813 61.537 62.2053 62.2793 61.463C63.0216 60.7206 63.5848 59.8375 63.9687 58.8136C64.3783 57.7641 64.5831 56.5866 64.5831 55.2811V53.3997C64.5831 51.9662 63.892 51.2495 62.5097 51.2495H34.0577V86.344H67.0021C67.1813 86.344 67.3988 86.3312 67.6548 86.3056C67.9108 86.28 68.1412 86.2032 68.346 86.0752C68.5507 85.9473 68.7299 85.7297 68.8835 85.4225C69.0371 85.1153 69.1139 84.693 69.1139 84.1554V82.3124ZM104.938 96.3271H100.484C99.0505 96.3271 97.5146 96.084 95.8764 95.5976C94.2637 95.1113 92.7534 94.3177 91.3456 93.217C89.9377 92.0907 88.773 90.6444 87.8515 88.8782C86.93 87.0864 86.4692 84.8977 86.4692 82.3124V37.2731H96.4523V82.3124C96.4523 83.5411 96.8363 84.5266 97.6042 85.2689C98.3722 85.9856 99.3321 86.344 100.484 86.344H104.938V96.3271ZM156.505 82.3124C156.505 84.0274 156.287 85.5761 155.852 86.9584C155.417 88.315 154.841 89.5181 154.124 90.5676C153.407 91.5916 152.575 92.4747 151.628 93.217C150.681 93.9338 149.683 94.5225 148.633 94.9833C147.609 95.444 146.56 95.7896 145.485 96.02C144.435 96.2248 143.437 96.3271 142.49 96.3271H124.482C123.1 96.3271 121.589 96.084 119.951 95.5976C118.313 95.1113 116.79 94.3177 115.382 93.217C114 92.0907 112.835 90.6444 111.888 88.8782C110.966 87.0864 110.505 84.8977 110.505 82.3124V68.7967C110.505 66.237 110.966 64.074 111.888 62.3077C112.835 60.5159 114 59.0696 115.382 57.9689C116.79 56.8426 118.313 56.0363 119.951 55.5499C121.589 55.0635 123.1 54.8204 124.482 54.8204H142.49C145.05 54.8204 147.226 55.2811 149.017 56.2026C150.809 57.1242 152.255 58.2889 153.356 59.6967C154.457 61.079 155.25 62.5893 155.737 64.2275C156.249 65.8658 156.505 67.3889 156.505 68.7967V82.3124ZM146.522 68.8735C146.522 67.4913 146.176 66.4673 145.485 65.8018C144.794 65.1363 143.795 64.8035 142.49 64.8035H124.559C123.228 64.8035 122.216 65.1491 121.525 65.8402C120.834 66.5057 120.489 67.4913 120.489 68.7967V82.3124C120.489 83.6179 120.834 84.6162 121.525 85.3073C122.216 85.9984 123.228 86.344 124.559 86.344H142.49C143.847 86.344 144.858 85.9984 145.523 85.3073C146.189 84.6162 146.522 83.6179 146.522 82.3124V68.8735ZM205.23 96.3271H178.16C176.778 96.3271 175.268 96.084 173.63 95.5976C171.991 95.1113 170.468 94.3177 169.06 93.217C167.678 92.0907 166.513 90.6444 165.566 88.8782C164.645 87.0864 164.184 84.8977 164.184 82.3124V68.7967C164.184 67.8496 164.286 66.8513 164.491 65.8018C164.722 64.7523 165.067 63.7156 165.528 62.6917C165.989 61.6422 166.577 60.6439 167.294 59.6967C168.036 58.7496 168.92 57.9177 169.944 57.201C170.993 56.4842 172.196 55.9083 173.553 55.4731C174.909 55.0379 176.445 54.8204 178.16 54.8204H205.23V64.8035H178.16C176.855 64.8035 175.857 65.1363 175.165 65.8018C174.5 66.4673 174.167 67.4913 174.167 68.8735V82.3124C174.167 83.6179 174.513 84.6162 175.204 85.3073C175.895 85.9984 176.906 86.344 178.237 86.344H205.23V96.3271ZM262.249 96.3271H247.85L227.731 76.8984C226.604 75.8745 226.079 74.5946 226.156 73.0588C226.207 72.342 226.387 71.6765 226.694 71.0621C227.027 70.4222 227.475 69.8846 228.038 69.4495L246.276 54.7436H262.249L238.75 73.6731L262.249 96.3271ZM223.622 96.3271H213.639V37.2731H223.622V96.3271Z" fill="#166DFF"/>
<path d="M343.802 20H363.878C365.66 20 366.552 22.1543 365.293 23.4142L319.794 68.9129C319.013 69.694 319.013 70.9603 319.794 71.7414L365.293 117.24C366.552 118.5 365.66 120.654 363.878 120.654H343.802C342.741 120.654 341.724 120.233 340.974 119.483L294.646 73.1556C293.084 71.5935 293.084 69.0608 294.646 67.4987L340.974 21.1716C341.724 20.4214 342.741 20 343.802 20Z" fill="#166DFF"/>
<path d="M304.733 54.5838L295.086 44.9372C294.336 44.1871 293.319 43.7656 292.258 43.7656H272.182C270.4 43.7656 269.508 45.9199 270.768 47.1798L291.843 68.2549C292.133 67.4631 292.597 66.7202 293.232 66.0845L304.733 54.5838Z" fill="white"/>
<path d="M291.843 72.3994C292.133 73.1913 292.597 73.9341 293.232 74.5698L304.733 86.0705L295.086 95.7172C294.336 96.4673 293.319 96.8887 292.258 96.8887H272.182C270.4 96.8887 269.508 94.7344 270.768 93.4745L291.843 72.3994Z" fill="white"/>
</svg>
